<mxfile host="app.diagrams.net" modified="2023-07-14T04:16:18.266Z" agent="Mozilla/5.0 (Windows NT 10.0; Win64; x64) AppleWebKit/537.36 (KHTML, like Gecko) Chrome/114.0.0.0 Safari/537.36" etag="5FnZGy5gx5C5Z05QI1L-" version="21.6.1" type="device">
  <diagram name="페이지-1" id="P0i_ivak8tCDaxX_YlOJ">
    <mxGraphModel dx="574" dy="573" grid="1" gridSize="10" guides="1" tooltips="1" connect="1" arrows="1" fold="1" page="1" pageScale="1" pageWidth="4681" pageHeight="3300" math="0" shadow="0">
      <root>
        <mxCell id="0" />
        <mxCell id="1" parent="0" />
        <mxCell id="1_kRTKKwHJhZbbLZObgp-1" value="차량 운행 기록" style="shape=rhombus;perimeter=rhombusPerimeter;whiteSpace=wrap;html=1;align=center;" vertex="1" parent="1">
          <mxGeometry x="250" y="40" width="120" height="60" as="geometry" />
        </mxCell>
        <mxCell id="1_kRTKKwHJhZbbLZObgp-26" style="edgeStyle=orthogonalEdgeStyle;rounded=0;orthogonalLoop=1;jettySize=auto;html=1;entryX=0.5;entryY=1;entryDx=0;entryDy=0;" edge="1" parent="1" source="1_kRTKKwHJhZbbLZObgp-3" target="1_kRTKKwHJhZbbLZObgp-1">
          <mxGeometry relative="1" as="geometry" />
        </mxCell>
        <mxCell id="1_kRTKKwHJhZbbLZObgp-3" value="차량 운행 등록" style="whiteSpace=wrap;html=1;align=center;" vertex="1" parent="1">
          <mxGeometry x="260" y="130" width="100" height="40" as="geometry" />
        </mxCell>
        <mxCell id="1_kRTKKwHJhZbbLZObgp-15" style="rounded=0;orthogonalLoop=1;jettySize=auto;html=1;" edge="1" parent="1" source="1_kRTKKwHJhZbbLZObgp-4" target="1_kRTKKwHJhZbbLZObgp-3">
          <mxGeometry relative="1" as="geometry" />
        </mxCell>
        <mxCell id="1_kRTKKwHJhZbbLZObgp-4" value="No." style="ellipse;whiteSpace=wrap;html=1;align=center;fontStyle=4;" vertex="1" parent="1">
          <mxGeometry x="120" y="130" width="100" height="40" as="geometry" />
        </mxCell>
        <mxCell id="1_kRTKKwHJhZbbLZObgp-18" style="rounded=0;orthogonalLoop=1;jettySize=auto;html=1;entryX=0.5;entryY=1;entryDx=0;entryDy=0;" edge="1" parent="1" source="1_kRTKKwHJhZbbLZObgp-5" target="1_kRTKKwHJhZbbLZObgp-3">
          <mxGeometry relative="1" as="geometry" />
        </mxCell>
        <mxCell id="1_kRTKKwHJhZbbLZObgp-5" value="구분" style="ellipse;whiteSpace=wrap;html=1;align=center;" vertex="1" parent="1">
          <mxGeometry x="150" y="200" width="100" height="40" as="geometry" />
        </mxCell>
        <mxCell id="1_kRTKKwHJhZbbLZObgp-20" style="rounded=0;orthogonalLoop=1;jettySize=auto;html=1;entryX=0.5;entryY=1;entryDx=0;entryDy=0;" edge="1" parent="1" source="1_kRTKKwHJhZbbLZObgp-6" target="1_kRTKKwHJhZbbLZObgp-3">
          <mxGeometry relative="1" as="geometry" />
        </mxCell>
        <mxCell id="1_kRTKKwHJhZbbLZObgp-6" value="출발일자" style="ellipse;whiteSpace=wrap;html=1;align=center;" vertex="1" parent="1">
          <mxGeometry x="180" y="270" width="100" height="40" as="geometry" />
        </mxCell>
        <mxCell id="1_kRTKKwHJhZbbLZObgp-16" style="rounded=0;orthogonalLoop=1;jettySize=auto;html=1;" edge="1" parent="1" source="1_kRTKKwHJhZbbLZObgp-7" target="1_kRTKKwHJhZbbLZObgp-3">
          <mxGeometry relative="1" as="geometry" />
        </mxCell>
        <mxCell id="1_kRTKKwHJhZbbLZObgp-25" style="rounded=0;orthogonalLoop=1;jettySize=auto;html=1;entryX=1;entryY=0.5;entryDx=0;entryDy=0;" edge="1" parent="1" source="1_kRTKKwHJhZbbLZObgp-7" target="1_kRTKKwHJhZbbLZObgp-3">
          <mxGeometry relative="1" as="geometry" />
        </mxCell>
        <mxCell id="1_kRTKKwHJhZbbLZObgp-7" value="출발시간" style="ellipse;whiteSpace=wrap;html=1;align=center;" vertex="1" parent="1">
          <mxGeometry x="400" y="130" width="100" height="40" as="geometry" />
        </mxCell>
        <mxCell id="1_kRTKKwHJhZbbLZObgp-23" style="rounded=0;orthogonalLoop=1;jettySize=auto;html=1;entryX=0.5;entryY=1;entryDx=0;entryDy=0;" edge="1" parent="1" source="1_kRTKKwHJhZbbLZObgp-8" target="1_kRTKKwHJhZbbLZObgp-3">
          <mxGeometry relative="1" as="geometry" />
        </mxCell>
        <mxCell id="1_kRTKKwHJhZbbLZObgp-8" value="출발거리(Km)" style="ellipse;whiteSpace=wrap;html=1;align=center;" vertex="1" parent="1">
          <mxGeometry x="370" y="200" width="100" height="40" as="geometry" />
        </mxCell>
        <mxCell id="1_kRTKKwHJhZbbLZObgp-21" style="rounded=0;orthogonalLoop=1;jettySize=auto;html=1;entryX=0.5;entryY=1;entryDx=0;entryDy=0;" edge="1" parent="1" source="1_kRTKKwHJhZbbLZObgp-9" target="1_kRTKKwHJhZbbLZObgp-3">
          <mxGeometry relative="1" as="geometry" />
        </mxCell>
        <mxCell id="1_kRTKKwHJhZbbLZObgp-9" value="도착일자" style="ellipse;whiteSpace=wrap;html=1;align=center;" vertex="1" parent="1">
          <mxGeometry x="340" y="270" width="100" height="40" as="geometry" />
        </mxCell>
        <mxCell id="1_kRTKKwHJhZbbLZObgp-24" style="rounded=0;orthogonalLoop=1;jettySize=auto;html=1;entryX=1;entryY=0.5;entryDx=0;entryDy=0;" edge="1" parent="1" source="1_kRTKKwHJhZbbLZObgp-10" target="1_kRTKKwHJhZbbLZObgp-3">
          <mxGeometry relative="1" as="geometry" />
        </mxCell>
        <mxCell id="1_kRTKKwHJhZbbLZObgp-10" value="도착시간" style="ellipse;whiteSpace=wrap;html=1;align=center;" vertex="1" parent="1">
          <mxGeometry x="480" y="170" width="100" height="40" as="geometry" />
        </mxCell>
        <mxCell id="1_kRTKKwHJhZbbLZObgp-22" style="rounded=0;orthogonalLoop=1;jettySize=auto;html=1;" edge="1" parent="1" source="1_kRTKKwHJhZbbLZObgp-11" target="1_kRTKKwHJhZbbLZObgp-3">
          <mxGeometry relative="1" as="geometry" />
        </mxCell>
        <mxCell id="1_kRTKKwHJhZbbLZObgp-11" value="도착거리(Km)" style="ellipse;whiteSpace=wrap;html=1;align=center;" vertex="1" parent="1">
          <mxGeometry x="450" y="240" width="100" height="40" as="geometry" />
        </mxCell>
        <mxCell id="1_kRTKKwHJhZbbLZObgp-17" style="rounded=0;orthogonalLoop=1;jettySize=auto;html=1;" edge="1" parent="1" source="1_kRTKKwHJhZbbLZObgp-12" target="1_kRTKKwHJhZbbLZObgp-3">
          <mxGeometry relative="1" as="geometry" />
        </mxCell>
        <mxCell id="1_kRTKKwHJhZbbLZObgp-12" value="장소" style="ellipse;whiteSpace=wrap;html=1;align=center;" vertex="1" parent="1">
          <mxGeometry x="40" y="170" width="100" height="40" as="geometry" />
        </mxCell>
        <mxCell id="1_kRTKKwHJhZbbLZObgp-19" style="rounded=0;orthogonalLoop=1;jettySize=auto;html=1;" edge="1" parent="1" source="1_kRTKKwHJhZbbLZObgp-13" target="1_kRTKKwHJhZbbLZObgp-3">
          <mxGeometry relative="1" as="geometry" />
        </mxCell>
        <mxCell id="1_kRTKKwHJhZbbLZObgp-13" value="소요비용" style="ellipse;whiteSpace=wrap;html=1;align=center;" vertex="1" parent="1">
          <mxGeometry x="70" y="240" width="100" height="40" as="geometry" />
        </mxCell>
      </root>
    </mxGraphModel>
  </diagram>
</mxfile>
